HIERARCHY
ROOT joint_Root
{
	OFFSET 0.0 0.0 0.0
	CHANNELS 6 Xposition Yposition Zposition Zrotation Xrotation Yrotation 
	JOINT Hips
	{
		OFFSET -17.1583 93.1646 452.98
		CHANNELS 6 Xposition Yposition Zposition Zrotation Xrotation Yrotation 
		JOINT Spine
		{
			OFFSET 15.7357 0.0 0.0
			CHANNELS 6 Xposition Yposition Zposition Zrotation Xrotation Yrotation 
			JOINT Chest
			{
				OFFSET 8.98455 -0.406207 0.0
				CHANNELS 6 Xposition Yposition Zposition Zrotation Xrotation Yrotation 
				JOINT Neck
				{
					OFFSET 16.3773 0.0 0.0
					CHANNELS 6 Xposition Yposition Zposition Zrotation Xrotation Yrotation 
					JOINT Head
					{
						OFFSET 6.45672 0.0 0.0
						CHANNELS 6 Xposition Yposition Zposition Zrotation Xrotation Yrotation 
						End Site
						{
							OFFSET 0.0 0.0 0.0
						}
					}
				}
				JOINT Shoulder_L
				{
					OFFSET 12.9942 -0.242716 4.98039
					CHANNELS 6 Xposition Yposition Zposition Zrotation Xrotation Yrotation 
					JOINT UpperArm_L
					{
						OFFSET 5.34809 0.0 0.0
						CHANNELS 6 Xposition Yposition Zposition Zrotation Xrotation Yrotation 
						JOINT LowerArm_L
						{
							OFFSET 24.3286 1.87007e-05 0.0
							CHANNELS 6 Xposition Yposition Zposition Zrotation Xrotation Yrotation 
							JOINT Hand_L
							{
								OFFSET 22.2916 0.0 0.0
								CHANNELS 6 Xposition Yposition Zposition Zrotation Xrotation Yrotation 
								End Site
								{
									OFFSET 0.0 0.0 0.0
								}
							}
						}
					}
				}
				JOINT Shoulder_R
				{
					OFFSET 12.9945 -0.242716 -4.98039
					CHANNELS 6 Xposition Yposition Zposition Zrotation Xrotation Yrotation 
					JOINT UpperArm_R
					{
						OFFSET -5.34813 0.0 0.0
						CHANNELS 6 Xposition Yposition Zposition Zrotation Xrotation Yrotation 
						JOINT LowerArm_R
						{
							OFFSET -24.3289 0.000322201 0.0
							CHANNELS 6 Xposition Yposition Zposition Zrotation Xrotation Yrotation 
							JOINT Hand_R
							{
								OFFSET -22.2915 -0.000108084 0.0
								CHANNELS 6 Xposition Yposition Zposition Zrotation Xrotation Yrotation 
								End Site
								{
									OFFSET 0.0 0.0 0.0
								}
							}
						}
					}
				}
			}
		}
		JOINT UpperLeg_L
		{
			OFFSET -2.19248 -6.46944 0.0
			CHANNELS 6 Xposition Yposition Zposition Zrotation Xrotation Yrotation 
			JOINT LowerLeg_L
			{
				OFFSET 39.0811 0.0 -1.23785e-05
				CHANNELS 6 Xposition Yposition Zposition Zrotation Xrotation Yrotation 
				JOINT Foot_L
				{
					OFFSET 40.9854 0.0 -1.26872e-05
					CHANNELS 6 Xposition Yposition Zposition Zrotation Xrotation Yrotation 
					JOINT Toes_L
					{
						OFFSET 11.7543 0.0 0.0
						CHANNELS 6 Xposition Yposition Zposition Zrotation Xrotation Yrotation 
						End Site
						{
							OFFSET 0.0 0.0 0.0
						}
					}
				}
			}
		}
		JOINT UpperLeg_R
		{
			OFFSET -2.19251 6.46944 0.0
			CHANNELS 6 Xposition Yposition Zposition Zrotation Xrotation Yrotation 
			JOINT LowerLeg_R
			{
				OFFSET -39.0811 -0.00228153 -0.0401928
				CHANNELS 6 Xposition Yposition Zposition Zrotation Xrotation Yrotation 
				JOINT Foot_R
				{
					OFFSET -40.9854 0.0 0.0
					CHANNELS 6 Xposition Yposition Zposition Zrotation Xrotation Yrotation 
					JOINT Toes_R
					{
						OFFSET -11.7543 0.0 0.0
						CHANNELS 6 Xposition Yposition Zposition Zrotation Xrotation Yrotation 
						End Site
						{
							OFFSET 0.0 0.0 0.0
						}
					}
				}
			}
		}
	}
}
MOTION
Frames:	6
Frame Time:	0.0333333
0.000000 0.000000 0.000000 0.000000 0.000000 -0.000000 -5.795090 91.341100 -2.291410 -90.787500 3.591000 -171.298000 15.735700 0.000005 -0.000001 79.937200 84.143100 -79.985200 8.984550 -0.406207 -0.000000 3.768810 -2.042310 -0.028568 16.377300 -0.000001 -0.000001 8.687110 4.344580 -3.276770 6.456720 -0.000001 -0.000000 -4.973340 5.369360 0.839640 12.994200 -0.242716 4.980390 -93.272500 8.487630 -68.823700 5.348090 -0.000007 -0.000001 -74.228000 -4.980010 -1.243450 24.328600 0.000019 0.000005 23.151700 27.329300 -42.963800 22.291600 -0.000001 0.000005 45.292400 4.563200 15.542500 12.994500 -0.242716 -4.980390 88.289300 4.378540 -68.634500 -5.348130 -0.000001 -0.000004 -69.844300 5.577820 3.461770 -24.328900 0.000322 -0.000009 -0.146137 -1.185410 -6.978630 -22.291500 -0.000108 -0.000004 49.491100 5.560230 -9.198590 -2.192480 -6.469440 -0.000000 174.368000 -3.295020 -3.956690 39.081100 -0.000007 -0.000012 0.364815 -0.678991 28.249500 40.985400 -0.000006 -0.000013 8.898200 10.144600 -71.471900 11.754300 -0.000000 0.000003 -0.001598 0.191194 -8.820360 -2.192510 6.469440 -0.000001 178.137000 -0.590389 162.768000 -39.081100 -0.002282 -0.040193 -0.091253 0.032224 71.143300 -40.985400 0.000008 0.000006 -0.267897 -7.472310 -52.810800 -11.754300 -0.000006 -0.000006 -0.001650 0.191912 -8.787700
0.000000 0.000000 0.000000 0.000000 0.000000 -0.000000 -5.436180 91.968000 -5.587810 -89.308000 2.994600 -171.943000 15.735700 0.000005 -0.000001 75.165800 84.120800 -74.634600 8.984550 -0.406207 -0.000000 3.619010 -3.025810 1.157100 16.377300 -0.000001 -0.000001 8.553470 4.500430 -3.548750 6.456720 -0.000001 -0.000000 -4.942430 5.969940 0.846987 12.994200 -0.242716 4.980390 -93.061300 8.084300 -69.178900 5.348090 -0.000007 -0.000001 -74.851900 -4.352200 -1.872950 24.328600 0.000019 0.000005 26.655200 26.078400 -48.788500 22.291600 -0.000001 0.000005 45.467100 4.531930 16.068800 12.994500 -0.242716 -4.980390 88.309000 4.228480 -68.179400 -5.348130 -0.000001 -0.000004 -67.867100 2.923480 5.593600 -24.328900 0.000322 -0.000009 -0.231379 -1.689480 -7.763590 -22.291500 -0.000108 -0.000004 50.189700 5.551000 -8.754580 -2.192480 -6.469440 -0.000000 176.570000 -4.819250 -0.099822 39.081100 -0.000007 -0.000012 0.288817 -0.635544 24.439600 40.985400 -0.000006 -0.000013 9.331750 12.667600 -72.333600 11.754300 -0.000000 0.000003 -0.002169 0.198444 -8.525530 -2.192510 6.469440 -0.000001 -179.723000 -1.631810 159.331000 -39.081100 -0.002282 -0.040193 -0.108798 0.049979 65.943200 -40.985400 0.000008 0.000006 0.154367 -11.722900 -58.273700 -11.754300 -0.000006 -0.000006 -0.001682 0.192328 -8.770790
0.000000 0.000000 0.000000 0.000000 0.000000 -0.000000 -5.058610 92.390500 -8.725350 -88.105900 1.847080 -172.920000 15.735700 0.000005 -0.000001 69.780000 84.150700 -68.771400 8.984550 -0.406207 -0.000000 3.255440 -4.078560 2.131640 16.377300 -0.000001 -0.000001 8.368580 4.495570 -3.671310 6.456720 -0.000001 -0.000000 -5.081070 6.423690 0.788356 12.994200 -0.242716 4.980390 -92.929100 7.855530 -69.475600 5.348090 -0.000007 -0.000001 -74.968100 -4.280050 -2.672590 24.328600 0.000019 0.000005 29.877000 24.430000 -54.248600 22.291600 -0.000001 0.000005 45.456500 4.509320 16.445700 12.994500 -0.242716 -4.980390 88.350800 4.035110 -67.747900 -5.348130 -0.000001 -0.000004 -65.837300 -0.725345 7.982960 -24.328900 0.000322 -0.000009 -0.188629 -1.130210 -9.430460 -22.291500 -0.000108 -0.000004 50.847200 5.538670 -8.183310 -2.192480 -6.469440 -0.000000 178.509000 -5.239860 3.011250 39.081100 -0.000007 -0.000012 0.200934 -0.526720 20.881300 40.985400 -0.000006 -0.000013 8.603980 15.078800 -72.595300 11.754300 -0.000000 0.000003 -0.001898 0.195057 -8.663290 -2.192510 6.469440 -0.000001 -178.192000 -2.713480 156.985000 -39.081100 -0.002282 -0.040193 -0.096805 0.064597 57.144300 -40.985400 0.000008 0.000006 0.556957 -15.600900 -60.979300 -11.754300 -0.000006 -0.000006 -0.002093 0.197547 -8.558540
0.000000 0.000000 0.000000 0.000000 0.000000 -0.000000 -4.758010 92.545100 -11.848800 -87.479600 0.822925 -173.844000 15.735700 0.000005 -0.000001 66.008900 84.203800 -64.728900 8.984550 -0.406207 -0.000000 2.888320 -4.763430 2.678680 16.377300 -0.000001 -0.000001 7.992510 4.409580 -3.577990 6.456720 -0.000001 -0.000000 -5.279380 6.724510 0.629777 12.994200 -0.242716 4.980390 -92.845300 7.743340 -69.752600 5.348090 -0.000007 -0.000001 -74.709400 -4.401730 -3.601040 24.328600 0.000019 0.000005 33.078000 22.845500 -59.200800 22.291600 -0.000001 0.000005 45.011000 4.487430 16.807700 12.994500 -0.242716 -4.980390 88.432500 3.774730 -67.429500 -5.348130 -0.000001 -0.000004 -63.987300 -4.095900 10.395400 -24.328900 0.000322 -0.000009 -0.124125 -0.621277 -11.204900 -22.291500 -0.000108 -0.000004 51.501400 5.536770 -8.096070 -2.192480 -6.469440 -0.000000 -179.879000 -5.793630 5.395780 39.081100 -0.000007 -0.000012 0.104551 -0.316580 18.276000 40.985400 -0.000006 -0.000013 5.584400 17.843900 -71.560300 11.754300 -0.000000 0.000003 -0.001169 0.185408 -9.055540 -2.192510 6.469440 -0.000001 -177.606000 -3.684040 156.258000 -39.081100 -0.002282 -0.040193 -0.061204 0.063659 45.361100 -40.985400 0.000008 0.000006 0.542825 -17.663900 -62.581800 -11.754300 -0.000006 -0.000006 -0.001963 0.195923 -8.624600
0.000000 0.000000 0.000000 0.000000 0.000000 -0.000000 -4.595200 92.381300 -15.119800 -87.718500 0.094285 -174.371000 15.735700 0.000005 -0.000001 63.886100 84.174900 -62.651100 8.984550 -0.406207 -0.000000 2.762080 -5.177210 2.593680 16.377300 -0.000001 -0.000001 7.374010 4.384690 -3.313550 6.456720 -0.000001 -0.000000 -5.511040 6.921380 0.407978 12.994200 -0.242716 4.980390 -92.729800 7.534750 -70.017800 5.348090 -0.000007 -0.000001 -74.460600 -4.820520 -4.581680 24.328600 0.000019 0.000005 35.499500 21.322800 -62.988100 22.291600 -0.000001 0.000005 44.803300 4.473410 17.037400 12.994500 -0.242716 -4.980390 88.551100 3.477330 -67.363700 -5.348130 -0.000001 -0.000004 -62.448200 -6.966690 12.354900 -24.328900 0.000322 -0.000009 -0.125568 -0.572205 -12.277400 -22.291500 -0.000108 -0.000004 51.943500 5.535180 -8.026430 -2.192480 -6.469440 -0.000000 -179.131000 -6.532430 8.310770 39.081100 -0.000007 -0.000012 0.033033 -0.118454 15.582400 40.985400 -0.000006 -0.000013 2.444620 20.227600 -70.051100 11.754300 -0.000000 0.000003 -0.000464 0.175096 -9.474590 -2.192510 6.469440 -0.000001 -178.096000 -3.746430 157.402000 -39.081100 -0.002282 -0.040193 -0.018486 0.035387 31.617300 -40.985400 0.000008 0.000006 -0.765319 -15.015700 -63.498400 -11.754300 -0.000006 -0.000006 -0.002653 0.204276 -8.284800
0.000000 0.000000 0.000000 0.000000 0.000000 -0.000000 -4.457320 91.830500 -18.610800 -88.313000 -0.547503 -174.585000 15.735700 0.000005 -0.000001 62.462800 84.082400 -61.379000 8.984550 -0.406207 -0.000000 2.793100 -5.513750 2.301120 16.377300 -0.000001 -0.000001 6.672790 4.387770 -2.960560 6.456720 -0.000001 -0.000000 -5.921400 7.157450 -0.041864 12.994200 -0.242716 4.980390 -92.594300 7.297280 -70.367900 5.348090 -0.000007 -0.000001 -74.243600 -5.527620 -5.246770 24.328600 0.000019 0.000005 36.508000 19.775600 -65.434700 22.291600 -0.000001 0.000005 44.408500 4.460850 17.242400 12.994500 -0.242716 -4.980390 88.706800 3.102670 -67.360100 -5.348130 -0.000001 -0.000004 -61.322500 -9.080070 13.582000 -24.328900 0.000322 -0.000009 -0.340962 -1.530650 -12.522300 -22.291500 -0.000108 -0.000004 52.627000 5.536160 -8.068580 -2.192480 -6.469440 -0.000000 -178.813000 -6.883260 11.211500 39.081100 -0.000007 -0.000012 -0.007260 0.029177 13.972500 40.985400 -0.000006 -0.000013 -0.532435 21.978700 -69.258900 11.754300 -0.000000 0.000003 1.400980 2.270860 -11.463300 -2.192510 6.469440 -0.000001 -178.239000 -1.896630 159.392000 -39.081100 -0.002282 -0.040193 0.000886 0.007372 18.301700 -40.985400 0.000008 0.000006 -1.840990 -10.155500 -63.254500 -11.754300 -0.000006 -0.000006 -0.002926 0.207432 -8.156410
